<?xml version="1.0" encoding="utf-8"?>
<!-- Generator: Adobe Illustrator 25.2.0, SVG Export Plug-In . SVG Version: 6.00 Build 0)  -->
<svg version="1.1" id="Layer_1" xmlns="http://www.w3.org/2000/svg" xmlns:xlink="http://www.w3.org/1999/xlink" x="0px" y="0px"
	 viewBox="0 0 601 151" style="enable-background:new 0 0 601 151;" xml:space="preserve">
<style type="text/css">
	.st0{fill:url(#SVGID_1_);}
	.st1{opacity:0.1882;clip-path:url(#SVGID_3_);fill:none;stroke:#FE8840;stroke-width:50;enable-background:new    ;}
	.st2{opacity:7.840000e-02;clip-path:url(#SVGID_5_);fill:none;stroke:#FEFEFE;stroke-width:50;enable-background:new    ;}
	.st3{opacity:0.1098;clip-path:url(#SVGID_7_);fill:none;stroke:#FE8840;stroke-width:50;enable-background:new    ;}
	.st4{opacity:0.2314;clip-path:url(#SVGID_9_);fill:none;stroke:#FE8840;stroke-width:50;enable-background:new    ;}
</style>
<g>
	
		<linearGradient id="SVGID_1_" gradientUnits="userSpaceOnUse" x1="-0.1414" y1="-881.7914" x2="600.8586" y2="-881.7914" gradientTransform="matrix(1 0 0 -1 0 -806)">
		<stop  offset="0" style="stop-color:#F06D5A"/>
		<stop  offset="1" style="stop-color:#F0934E"/>
	</linearGradient>
	<rect x="-0.1" y="0.4" class="st0" width="601" height="150.7"/>
	<g>
		<g>
			<defs>
				<rect id="SVGID_2_" x="-0.1" y="0.4" width="202.2" height="150.2"/>
			</defs>
			<clipPath id="SVGID_3_">
				<use xlink:href="#SVGID_2_"  style="overflow:visible;"/>
			</clipPath>
			<path class="st1" d="M6.5,44c1.3,0,2.6,0.1,3.9,0.2c1.3,0.1,2.6,0.3,3.9,0.6s2.6,0.6,3.8,1s2.5,0.8,3.7,1.3s2.4,1.1,3.5,1.7
				c1.2,0.6,2.3,1.3,3.4,2s2.1,1.5,3.2,2.3c1,0.8,2,1.7,2.9,2.6c0.9,0.9,1.8,1.9,2.6,2.9s1.6,2.1,2.3,3.2c0.7,1.1,1.4,2.2,2,3.4
				s1.2,2.3,1.7,3.5s0.9,2.4,1.3,3.7c0.4,1.3,0.7,2.5,1,3.8s0.4,2.6,0.6,3.9c0.1,1.3,0.2,2.6,0.2,3.9s-0.1,2.6-0.2,3.9
				c-0.1,1.3-0.3,2.6-0.6,3.9s-0.6,2.6-1,3.8c-0.4,1.3-0.8,2.5-1.3,3.7s-1.1,2.4-1.7,3.5s-1.3,2.3-2,3.4s-1.5,2.1-2.3,3.2
				c-0.8,1-1.7,2-2.6,2.9c-0.9,0.9-1.9,1.8-2.9,2.6c-1,0.8-2.1,1.6-3.2,2.3c-1.1,0.7-2.2,1.4-3.4,2s-2.3,1.2-3.5,1.7
				s-2.4,0.9-3.7,1.3c-1.3,0.4-2.5,0.7-3.8,1s-2.6,0.4-3.9,0.6c-1.3,0.1-2.6,0.2-3.9,0.2s-2.6-0.1-3.9-0.2s-2.6-0.3-3.9-0.6
				c-1.3-0.3-2.6-0.6-3.8-1c-1.3-0.4-2.5-0.8-3.7-1.3s-2.4-1.1-3.5-1.7c-1.2-0.6-2.3-1.3-3.4-2s-2.1-1.5-3.2-2.3s-2-1.7-2.9-2.6
				s-1.8-1.9-2.6-2.9c-0.8-1-1.6-2.1-2.3-3.2c-0.7-1.1-1.4-2.2-2-3.4s-1.2-2.3-1.7-3.5s-0.9-2.4-1.3-3.7c-0.4-1.3-0.7-2.5-1-3.8
				s-0.4-2.6-0.6-3.9c-0.1-1.3-0.2-2.6-0.2-3.9s0.1-2.6,0.2-3.9c0.1-1.3,0.3-2.6,0.6-3.9s0.6-2.6,1-3.8c0.4-1.3,0.8-2.5,1.3-3.7
				s1.1-2.4,1.7-3.5c0.6-1.2,1.3-2.3,2-3.4c0.7-1.1,1.5-2.1,2.3-3.2s1.7-2,2.6-2.9s1.9-1.8,2.9-2.6s2.1-1.6,3.2-2.3s2.2-1.4,3.4-2
				s2.3-1.2,3.5-1.7s2.4-0.9,3.7-1.3s2.5-0.7,3.8-1s2.6-0.4,3.9-0.6S5.2,44,6.5,44z"/>
		</g>
		<g>
			<defs>
				<rect id="SVGID_4_" x="-0.1" y="0.4" width="202.2" height="150.2"/>
			</defs>
			<clipPath id="SVGID_5_">
				<use xlink:href="#SVGID_4_"  style="overflow:visible;"/>
			</clipPath>
			<path class="st2" d="M6.5,8.8c1.2,0,2.5,0,3.7,0.1s2.5,0.2,3.7,0.3s2.4,0.3,3.7,0.5c1.2,0.2,2.4,0.4,3.6,0.6
				c1.2,0.2,2.4,0.5,3.6,0.8s2.4,0.6,3.6,1s2.3,0.7,3.5,1.2c1.2,0.4,2.3,0.9,3.4,1.3c1.1,0.5,2.3,1,3.4,1.5c1.1,0.5,2.2,1.1,3.3,1.7
				s2.2,1.2,3.2,1.8c1.1,0.6,2.1,1.3,3.1,2s2,1.4,3,2.1s2,1.5,2.9,2.3s1.9,1.6,2.8,2.4s1.8,1.7,2.7,2.5c0.9,0.9,1.7,1.8,2.5,2.7
				c0.8,0.9,1.6,1.8,2.4,2.8s1.5,1.9,2.3,2.9c0.7,1,1.4,2,2.1,3s1.3,2.1,2,3.1c0.6,1.1,1.2,2.1,1.8,3.2c0.6,1.1,1.1,2.2,1.7,3.3
				c0.5,1.1,1,2.2,1.5,3.4c0.5,1.1,0.9,2.3,1.3,3.4s0.8,2.3,1.2,3.5s0.7,2.4,1,3.6c0.3,1.2,0.6,2.4,0.8,3.6c0.2,1.2,0.5,2.4,0.6,3.6
				c0.2,1.2,0.3,2.4,0.5,3.7c0.1,1.2,0.2,2.5,0.3,3.7c0.1,1.2,0.1,2.5,0.1,3.7s0,2.5-0.1,3.7s-0.2,2.5-0.3,3.7
				c-0.1,1.2-0.3,2.4-0.5,3.7c-0.2,1.2-0.4,2.4-0.6,3.6s-0.5,2.4-0.8,3.6s-0.6,2.4-1,3.6s-0.7,2.3-1.2,3.5c-0.4,1.2-0.9,2.3-1.3,3.4
				c-0.5,1.1-1,2.3-1.5,3.4s-1.1,2.2-1.7,3.3c-0.6,1.1-1.2,2.2-1.8,3.2s-1.3,2.1-2,3.1s-1.4,2-2.1,3s-1.5,2-2.3,2.9
				c-0.8,1-1.6,1.9-2.4,2.8c-0.8,0.9-1.7,1.8-2.5,2.7c-0.9,0.9-1.8,1.7-2.7,2.5s-1.8,1.6-2.8,2.4c-1,0.8-1.9,1.5-2.9,2.3
				c-1,0.7-2,1.4-3,2.1c-1,0.7-2.1,1.3-3.1,2c-1.1,0.6-2.1,1.2-3.2,1.8c-1.1,0.6-2.2,1.1-3.3,1.7s-2.2,1-3.4,1.5
				c-1.1,0.5-2.3,0.9-3.4,1.3c-1.2,0.4-2.3,0.8-3.5,1.2s-2.4,0.7-3.6,1s-2.4,0.6-3.6,0.8s-2.4,0.5-3.6,0.6c-1.2,0.2-2.4,0.3-3.7,0.5
				c-1.2,0.1-2.5,0.2-3.7,0.3s-2.5,0.1-3.7,0.1s-2.5,0-3.7-0.1s-2.5-0.2-3.7-0.3s-2.4-0.3-3.7-0.5c-1.2-0.2-2.4-0.4-3.6-0.6
				c-1.2-0.2-2.4-0.5-3.6-0.8s-2.4-0.6-3.6-1s-2.3-0.7-3.5-1.2c-1.2-0.4-2.3-0.9-3.4-1.3s-2.3-1-3.4-1.5s-2.2-1.1-3.3-1.7
				c-1.1-0.6-2.2-1.2-3.2-1.8c-1.1-0.6-2.1-1.3-3.1-2s-2-1.4-3-2.1c-1-0.7-2-1.5-2.9-2.3c-1-0.8-1.9-1.6-2.8-2.4s-1.8-1.7-2.7-2.5
				c-0.9-0.9-1.7-1.8-2.5-2.7s-1.6-1.8-2.4-2.8c-0.8-1-1.5-1.9-2.3-2.9s-1.4-2-2.1-3c-0.7-1-1.3-2.1-2-3.1s-1.2-2.1-1.8-3.2
				s-1.1-2.2-1.7-3.3c-0.5-1.1-1-2.2-1.5-3.4c-0.5-1.1-0.9-2.3-1.3-3.4c-0.4-1.2-0.8-2.3-1.2-3.5c-0.4-1.2-0.7-2.4-1-3.6
				s-0.6-2.4-0.8-3.6c-0.2-1.2-0.5-2.4-0.6-3.6s-0.3-2.4-0.5-3.7c-0.1-1.2-0.2-2.5-0.3-3.7c-0.1-1.2-0.1-2.5-0.1-3.7s0-2.5,0.1-3.7
				s0.2-2.5,0.3-3.7c0.1-1.2,0.3-2.4,0.5-3.7s0.4-2.4,0.6-3.6s0.5-2.4,0.8-3.6s0.6-2.4,1-3.6c0.4-1.2,0.7-2.3,1.2-3.5
				c0.4-1.2,0.9-2.3,1.3-3.4c0.5-1.1,1-2.3,1.5-3.4c0.5-1.1,1.1-2.2,1.7-3.3c0.6-1.1,1.2-2.2,1.8-3.2c0.6-1.1,1.3-2.1,2-3.1
				s1.4-2,2.1-3s1.5-2,2.3-2.9c0.8-1,1.6-1.9,2.4-2.8c0.8-0.9,1.7-1.8,2.5-2.7c0.9-0.9,1.8-1.7,2.7-2.5s1.8-1.6,2.8-2.4
				s1.9-1.5,2.9-2.3c1-0.7,2-1.4,3-2.1s2.1-1.3,3.1-2c1.1-0.6,2.1-1.2,3.2-1.8c1.1-0.6,2.2-1.1,3.3-1.7c1.1-0.5,2.2-1,3.4-1.5
				s2.3-0.9,3.4-1.3c1.2-0.4,2.3-0.8,3.5-1.2s2.4-0.7,3.6-1s2.4-0.6,3.6-0.8c1.3-0.3,2.5-0.5,3.7-0.7s2.4-0.3,3.7-0.5
				C0.4,9,1.7,8.9,2.9,8.8C4.1,8.8,5.3,8.8,6.5,8.8z"/>
		</g>
		<g>
			<defs>
				<rect id="SVGID_6_" x="-0.1" y="0.4" width="202.2" height="150.2"/>
			</defs>
			<clipPath id="SVGID_7_">
				<use xlink:href="#SVGID_6_"  style="overflow:visible;"/>
			</clipPath>
			<path class="st3" d="M6.5-31.1c1.9,0,3.8,0,5.6,0.1c1.9,0.1,3.8,0.2,5.6,0.4c1.9,0.2,3.7,0.4,5.6,0.7c1.9,0.3,3.7,0.6,5.6,1
				s3.7,0.8,5.5,1.2s3.6,1,5.4,1.5s3.6,1.1,5.4,1.8c1.8,0.6,3.5,1.3,5.3,2s3.5,1.5,5.2,2.3s3.4,1.7,5,2.5c1.7,0.9,3.3,1.8,4.9,2.8
				c1.6,1,3.2,2,4.8,3s3.1,2.1,4.6,3.3c1.5,1.1,3,2.3,4.5,3.5s2.9,2.4,4.3,3.7s2.8,2.6,4.1,3.9c1.3,1.3,2.6,2.7,3.9,4.1
				s2.5,2.8,3.7,4.3s2.4,2.9,3.5,4.5c1.1,1.5,2.2,3.1,3.3,4.6s2.1,3.2,3,4.8s1.9,3.3,2.8,4.9c0.9,1.7,1.7,3.3,2.5,5s1.6,3.4,2.3,5.2
				s1.4,3.5,2,5.3s1.2,3.6,1.8,5.4c0.5,1.8,1,3.6,1.5,5.4c0.5,1.8,0.9,3.7,1.2,5.5s0.7,3.7,1,5.6s0.5,3.7,0.7,5.6s0.3,3.8,0.4,5.6
				c0.1,1.9,0.1,3.8,0.1,5.6c0,1.9,0,3.8-0.1,5.6c-0.1,1.9-0.2,3.8-0.4,5.6c-0.2,1.9-0.4,3.7-0.7,5.6c-0.3,1.9-0.6,3.7-1,5.6
				c-0.4,1.8-0.8,3.7-1.2,5.5c-0.5,1.8-1,3.6-1.5,5.4s-1.1,3.6-1.8,5.4c-0.6,1.8-1.3,3.5-2,5.3s-1.5,3.5-2.3,5.2s-1.7,3.4-2.5,5
				c-0.9,1.7-1.8,3.3-2.8,4.9s-2,3.2-3,4.8s-2.1,3.1-3.3,4.6c-1.1,1.5-2.3,3-3.5,4.5s-2.4,2.9-3.7,4.3s-2.6,2.8-3.9,4.1
				s-2.7,2.6-4.1,3.9s-2.8,2.5-4.3,3.7s-2.9,2.4-4.5,3.5s-3.1,2.2-4.6,3.3s-3.2,2.1-4.8,3s-3.3,1.9-4.9,2.8c-1.7,0.9-3.3,1.7-5,2.5
				s-3.4,1.6-5.2,2.3c-1.7,0.7-3.5,1.4-5.3,2s-3.6,1.2-5.4,1.8c-1.8,0.5-3.6,1-5.4,1.5c-1.8,0.5-3.7,0.9-5.5,1.2
				c-1.8,0.4-3.7,0.7-5.6,1s-3.7,0.5-5.6,0.7s-3.8,0.3-5.6,0.4c-1.9,0.1-3.8,0.1-5.6,0.1s-3.8,0-5.6-0.1s-3.8-0.2-5.6-0.4
				c-1.9-0.2-3.7-0.4-5.6-0.7s-3.7-0.6-5.6-1c-1.8-0.4-3.7-0.8-5.5-1.2s-3.6-1-5.4-1.5s-3.6-1.1-5.4-1.8c-1.8-0.6-3.5-1.3-5.3-2
				s-3.5-1.5-5.2-2.3s-3.4-1.7-5-2.5c-1.7-0.9-3.3-1.8-4.9-2.8c-1.6-1-3.2-2-4.8-3s-3.1-2.1-4.6-3.3c-1.5-1.1-3-2.3-4.5-3.5
				s-2.9-2.4-4.3-3.7s-2.8-2.6-4.1-3.9c-1.3-1.3-2.6-2.7-3.9-4.1c-1.3-1.4-2.5-2.8-3.7-4.3s-2.4-2.9-3.5-4.5
				c-1.1-1.5-2.2-3.1-3.3-4.6c-1-1.6-2.1-3.2-3-4.8c-1-1.6-1.9-3.3-2.8-4.9c-0.9-1.7-1.7-3.3-2.5-5s-1.6-3.4-2.3-5.2s-1.4-3.5-2-5.3
				s-1.2-3.6-1.8-5.4s-1-3.6-1.5-5.4s-0.9-3.7-1.2-5.5c-0.4-1.8-0.7-3.7-1-5.6s-0.5-3.7-0.7-5.6s-0.3-3.8-0.4-5.6
				c-0.1-1.9-0.1-3.8-0.1-5.6s0-3.8,0.1-5.6c0.1-1.9,0.2-3.8,0.4-5.6c0.2-1.9,0.4-3.7,0.7-5.6c0.3-1.9,0.6-3.7,1-5.6
				s0.8-3.7,1.2-5.5c0.5-1.8,1-3.6,1.5-5.4c0.5-1.8,1.1-3.6,1.8-5.4c0.6-1.8,1.3-3.5,2-5.3s1.5-3.5,2.3-5.2s1.7-3.4,2.5-5
				c0.9-1.7,1.8-3.3,2.8-4.9s2-3.2,3-4.8s2.1-3.1,3.3-4.6c1.1-1.5,2.3-3,3.5-4.5s2.4-2.9,3.7-4.3c1.3-1.4,2.6-2.8,3.9-4.1
				s2.7-2.6,4.1-3.9S-68-3.8-66.5-5s2.9-2.4,4.5-3.5c1.5-1.1,3.1-2.2,4.6-3.3c1.6-1,3.2-2.1,4.8-3s3.3-1.9,4.9-2.8
				c1.7-0.9,3.3-1.7,5-2.5s3.4-1.6,5.2-2.3s3.5-1.4,5.3-2s3.6-1.2,5.4-1.8s3.6-1,5.4-1.5s3.7-0.9,5.5-1.2s3.7-0.7,5.6-1
				s3.7-0.5,5.6-0.7s3.8-0.3,5.6-0.4C2.7-31.1,4.6-31.1,6.5-31.1z"/>
		</g>
		<g>
			<defs>
				<rect id="SVGID_8_" x="-0.1" y="0.4" width="202.2" height="150.2"/>
			</defs>
			<clipPath id="SVGID_9_">
				<use xlink:href="#SVGID_8_"  style="overflow:visible;"/>
			</clipPath>
			<path class="st4" d="M6.5-72.6c2.6,0,5.1,0.1,7.7,0.2s5.1,0.3,7.7,0.6c2.6,0.3,5.1,0.6,7.6,0.9c2.5,0.4,5.1,0.8,7.6,1.3
				s5,1.1,7.5,1.7s5,1.3,7.4,2.1c2.5,0.7,4.9,1.5,7.3,2.4c2.4,0.9,4.8,1.8,7.2,2.8s4.7,2,7,3.1s4.6,2.2,6.9,3.5
				c2.3,1.2,4.5,2.5,6.7,3.8s4.4,2.7,6.5,4.1c2.1,1.4,4.2,2.9,6.3,4.4c2.1,1.5,4.1,3.1,6.1,4.7s3.9,3.3,5.8,5s3.8,3.5,5.6,5.3
				c1.8,1.8,3.6,3.7,5.3,5.6s3.4,3.8,5,5.8s3.2,4,4.7,6.1s3,4.2,4.4,6.3s2.8,4.3,4.1,6.5s2.6,4.4,3.8,6.7s2.4,4.5,3.5,6.9
				c1.1,2.3,2.1,4.7,3.1,7c1,2.4,1.9,4.8,2.8,7.2c0.9,2.4,1.7,4.8,2.4,7.3s1.4,4.9,2.1,7.4s1.2,5,1.7,7.5s0.9,5,1.3,7.6
				s0.7,5.1,0.9,7.6c0.3,2.6,0.4,5.1,0.6,7.7c0.1,2.6,0.2,5.1,0.2,7.7s-0.1,5.1-0.2,7.7c-0.1,2.6-0.3,5.1-0.6,7.7s-0.6,5.1-0.9,7.6
				s-0.8,5.1-1.3,7.6s-1.1,5-1.7,7.5c-0.6,2.5-1.3,5-2.1,7.4c-0.7,2.5-1.5,4.9-2.4,7.3c-0.9,2.4-1.8,4.8-2.8,7.2s-2,4.7-3.1,7
				s-2.2,4.6-3.5,6.9s-2.5,4.5-3.8,6.7s-2.7,4.4-4.1,6.5c-1.4,2.1-2.9,4.2-4.4,6.3s-3.1,4.1-4.7,6.1c-1.6,2-3.3,3.9-5,5.8
				c-1.7,1.9-3.5,3.8-5.3,5.6s-3.7,3.6-5.6,5.3s-3.8,3.4-5.8,5s-4,3.2-6.1,4.7s-4.2,3-6.3,4.4c-2.1,1.4-4.3,2.8-6.5,4.1
				s-4.4,2.6-6.7,3.8c-2.3,1.2-4.5,2.4-6.9,3.5c-2.3,1.1-4.7,2.1-7,3.1c-2.4,1-4.8,1.9-7.2,2.8c-2.4,0.9-4.8,1.7-7.3,2.4
				s-4.9,1.4-7.4,2.1c-2.5,0.6-5,1.2-7.5,1.7s-5,0.9-7.6,1.3c-2.5,0.4-5.1,0.7-7.6,0.9c-2.6,0.3-5.1,0.4-7.7,0.6
				c-2.6,0.1-5.1,0.2-7.7,0.2s-5.1-0.1-7.7-0.2s-5.1-0.3-7.7-0.6s-5.1-0.6-7.6-0.9c-2.5-0.4-5.1-0.8-7.6-1.3s-5-1.1-7.5-1.7
				c-2.5-0.6-5-1.3-7.4-2.1c-2.5-0.7-4.9-1.5-7.3-2.4c-2.4-0.9-4.8-1.8-7.2-2.8s-4.7-2-7-3.1s-4.6-2.2-6.9-3.5
				c-2.3-1.2-4.5-2.5-6.7-3.8s-4.4-2.7-6.5-4.1c-2.1-1.4-4.2-2.9-6.3-4.4c-2.1-1.5-4.1-3.1-6.1-4.7c-2-1.6-3.9-3.3-5.8-5
				s-3.8-3.5-5.6-5.3c-1.8-1.8-3.6-3.7-5.3-5.6c-1.7-1.9-3.4-3.8-5-5.8s-3.2-4-4.7-6.1s-3-4.2-4.4-6.3s-2.8-4.3-4.1-6.5
				c-1.3-2.2-2.6-4.4-3.8-6.7s-2.4-4.5-3.5-6.9s-2.1-4.7-3.1-7s-1.9-4.8-2.8-7.2c-0.9-2.4-1.7-4.8-2.4-7.3s-1.4-4.9-2.1-7.4
				c-0.6-2.5-1.2-5-1.7-7.5s-0.9-5-1.3-7.6c-0.4-2.5-0.7-5.1-0.9-7.6s-0.4-5.1-0.6-7.7c-0.1-2.6-0.2-5.1-0.2-7.7s0.1-5.1,0.2-7.7
				c0.1-2.6,0.3-5.1,0.6-7.7s0.6-5.1,0.9-7.6c0.4-2.5,0.8-5.1,1.3-7.6s1.1-5,1.7-7.5s1.3-5,2.1-7.4c0.7-2.5,1.5-4.9,2.4-7.3
				s1.8-4.8,2.8-7.2s2-4.7,3.1-7s2.2-4.6,3.5-6.9c1.2-2.3,2.5-4.5,3.8-6.7s2.7-4.4,4.1-6.5s2.9-4.2,4.4-6.3s3.1-4.1,4.7-6.1
				s3.3-3.9,5-5.8s3.5-3.8,5.3-5.6c1.8-1.8,3.7-3.6,5.6-5.3s3.8-3.4,5.8-5s4-3.2,6.1-4.7s4.2-3,6.3-4.4s4.3-2.8,6.5-4.1
				s4.4-2.6,6.7-3.8c2.3-1.2,4.5-2.4,6.9-3.5c2.3-1.1,4.7-2.1,7-3.1c2.4-1,4.8-1.9,7.2-2.8s4.8-1.7,7.3-2.4s4.9-1.4,7.4-2.1
				c2.5-0.6,5-1.2,7.5-1.7s5-0.9,7.6-1.3c2.5-0.4,5.1-0.7,7.6-0.9s5.1-0.4,7.7-0.6S4-72.6,6.5-72.6z"/>
		</g>
	</g>
</g>
</svg>
