<?xml version="1.0" encoding="utf-8"?>
<!-- Generator: Adobe Illustrator 25.2.0, SVG Export Plug-In . SVG Version: 6.00 Build 0)  -->
<svg version="1.1" id="Layer_1" xmlns="http://www.w3.org/2000/svg" xmlns:xlink="http://www.w3.org/1999/xlink" x="0px" y="0px"
	 viewBox="0 0 600.2 384" style="enable-background:new 0 0 600.2 384;" xml:space="preserve">
<style type="text/css">
	.st0{fill:#FFFFFF;}
	.st1{opacity:0.502;enable-background:new    ;}
	.st2{opacity:0.1882;clip-path:url(#SVGID_2_);fill:none;stroke:#FE8840;stroke-width:50;}
	.st3{opacity:7.840000e-02;clip-path:url(#SVGID_2_);fill:none;stroke:#FEFEFE;stroke-width:50;}
	.st4{opacity:0.1098;clip-path:url(#SVGID_2_);fill:none;stroke:#FE8840;stroke-width:50;}
	.st5{opacity:0.2314;clip-path:url(#SVGID_2_);fill:none;stroke:#FE8840;stroke-width:50;}
	.st6{opacity:0.1882;clip-path:url(#SVGID_4_);fill:none;stroke:#FE8840;stroke-width:50;}
	.st7{opacity:7.840000e-02;clip-path:url(#SVGID_4_);fill:none;stroke:#FEFEFE;stroke-width:50;}
	.st8{opacity:0.1098;clip-path:url(#SVGID_4_);fill:none;stroke:#FE8840;stroke-width:50;}
	.st9{opacity:0.2314;clip-path:url(#SVGID_4_);fill:none;stroke:#FE8840;stroke-width:50;}
	.st10{fill:#F9F9F9;}
	.st11{fill:url(#SVGID_5_);}
	.st12{clip-path:url(#SVGID_7_);enable-background:new    ;}
	.st13{opacity:0.1882;clip-path:url(#SVGID_9_);enable-background:new    ;}
	.st14{opacity:0.3216;clip-path:url(#SVGID_11_);fill:none;stroke:#F3F3F3;stroke-width:39;}
	.st15{clip-path:url(#SVGID_13_);enable-background:new    ;}
	.st16{opacity:0.1882;clip-path:url(#SVGID_15_);enable-background:new    ;}
	.st17{opacity:0.3216;clip-path:url(#SVGID_17_);fill:none;stroke:#F3F3F3;stroke-width:39;}
	.st18{fill:url(#SVGID_18_);}
	.st19{fill:#E8E8E8;}
	.st20{enable-background:new    ;}
	.st21{opacity:0.1882;clip-path:url(#SVGID_20_);fill:none;stroke:#FE8840;stroke-width:50;}
	.st22{opacity:7.840000e-02;clip-path:url(#SVGID_20_);fill:none;stroke:#FEFEFE;stroke-width:50;}
	.st23{opacity:0.1098;clip-path:url(#SVGID_20_);fill:none;stroke:#FE8840;stroke-width:50;}
	.st24{opacity:0.2314;clip-path:url(#SVGID_20_);fill:none;stroke:#FE8840;stroke-width:50;}
	.st25{opacity:0;clip-path:url(#SVGID_22_);fill:none;stroke:#D3D3D3;}
	.st26{opacity:0;clip-path:url(#SVGID_24_);fill:none;stroke:#D3D3D3;}
	.st27{opacity:0;clip-path:url(#SVGID_26_);fill:none;stroke:#D3D3D3;}
	.st28{opacity:0;clip-path:url(#SVGID_28_);fill:none;stroke:#D3D3D3;}
	.st29{opacity:0;clip-path:url(#SVGID_30_);fill:none;stroke:#D3D3D3;}
	.st30{opacity:0;clip-path:url(#SVGID_32_);fill:none;stroke:#D3D3D3;}
	.st31{opacity:0;clip-path:url(#SVGID_34_);fill:none;stroke:#D3D3D3;}
	.st32{opacity:0;clip-path:url(#SVGID_36_);fill:none;stroke:#D3D3D3;}
	.st33{opacity:0;clip-path:url(#SVGID_38_);fill:none;stroke:#D3D3D3;}
</style>
<rect y="-339.7" class="st0" width="600" height="1892"/>
<g>
	<g class="st1">
		<g>
			<g>
				<defs>
					<rect id="SVGID_3_" x="399" y="-63.4" width="201.2" height="462.2"/>
				</defs>
				<clipPath id="SVGID_2_">
					<use xlink:href="#SVGID_3_"  style="overflow:visible;"/>
				</clipPath>
				<path class="st2" d="M598.6,152.2c1.3,0,2.6,0.1,3.9,0.2c1.3,0.1,2.6,0.3,3.9,0.6s2.6,0.6,3.8,1c1.3,0.4,2.5,0.8,3.7,1.3
					c1.2,0.5,2.4,1.1,3.5,1.7c1.2,0.6,2.3,1.3,3.4,2c1.1,0.7,2.1,1.5,3.2,2.3s2,1.7,2.9,2.6c0.9,0.9,1.8,1.9,2.6,2.9
					c0.8,1,1.6,2.1,2.3,3.2s1.4,2.2,2,3.4c0.6,1.2,1.2,2.3,1.7,3.5c0.5,1.2,0.9,2.4,1.3,3.7c0.4,1.3,0.7,2.5,1,3.8s0.4,2.6,0.6,3.9
					c0.1,1.3,0.2,2.6,0.2,3.9c0,1.3-0.1,2.6-0.2,3.9c-0.1,1.3-0.3,2.6-0.6,3.9c-0.3,1.3-0.6,2.6-1,3.8c-0.4,1.3-0.8,2.5-1.3,3.7
					c-0.5,1.2-1.1,2.4-1.7,3.5s-1.3,2.3-2,3.4c-0.7,1.1-1.5,2.1-2.3,3.2c-0.8,1-1.7,2-2.6,2.9s-1.9,1.8-2.9,2.6
					c-1,0.8-2.1,1.6-3.2,2.3c-1.1,0.7-2.2,1.4-3.4,2c-1.2,0.6-2.3,1.2-3.5,1.7s-2.4,0.9-3.7,1.3c-1.3,0.4-2.5,0.7-3.8,1
					s-2.6,0.4-3.9,0.6c-1.3,0.1-2.6,0.2-3.9,0.2s-2.6-0.1-3.9-0.2c-1.3-0.1-2.6-0.3-3.9-0.6c-1.3-0.3-2.6-0.6-3.8-1
					c-1.3-0.4-2.5-0.8-3.7-1.3c-1.2-0.5-2.4-1.1-3.5-1.7s-2.3-1.3-3.4-2c-1.1-0.7-2.1-1.5-3.2-2.3c-1-0.8-2-1.7-2.9-2.6
					s-1.8-1.9-2.6-2.9s-1.6-2.1-2.3-3.2c-0.7-1.1-1.4-2.2-2-3.4s-1.2-2.3-1.7-3.5c-0.5-1.2-0.9-2.4-1.3-3.7c-0.4-1.3-0.7-2.5-1-3.8
					c-0.3-1.3-0.4-2.6-0.6-3.9c-0.1-1.3-0.2-2.6-0.2-3.9c0-1.3,0.1-2.6,0.2-3.9c0.1-1.3,0.3-2.6,0.6-3.9s0.6-2.6,1-3.8
					s0.8-2.5,1.3-3.7c0.5-1.2,1.1-2.4,1.7-3.5c0.6-1.2,1.3-2.3,2-3.4c0.7-1.1,1.5-2.1,2.3-3.2c0.8-1,1.7-2,2.6-2.9
					c0.9-0.9,1.9-1.8,2.9-2.6c1-0.8,2.1-1.6,3.2-2.3c1.1-0.7,2.2-1.4,3.4-2c1.2-0.6,2.3-1.2,3.5-1.7c1.2-0.5,2.4-0.9,3.7-1.3
					c1.3-0.4,2.5-0.7,3.8-1c1.3-0.3,2.6-0.4,3.9-0.6C596,152.3,597.3,152.2,598.6,152.2z"/>
				<path class="st3" d="M598.6,117c1.2,0,2.5,0,3.7,0.1c1.2,0.1,2.5,0.2,3.7,0.3c1.2,0.1,2.4,0.3,3.7,0.5c1.2,0.2,2.4,0.4,3.6,0.6
					c1.2,0.2,2.4,0.5,3.6,0.8c1.2,0.3,2.4,0.6,3.6,1c1.2,0.4,2.3,0.7,3.5,1.2c1.2,0.4,2.3,0.9,3.4,1.3s2.3,1,3.4,1.5
					s2.2,1.1,3.3,1.7c1.1,0.6,2.2,1.2,3.2,1.8c1.1,0.6,2.1,1.3,3.1,2c1,0.7,2,1.4,3,2.1s2,1.5,2.9,2.3s1.9,1.6,2.8,2.4
					s1.8,1.7,2.7,2.5c0.9,0.9,1.7,1.8,2.5,2.7c0.8,0.9,1.6,1.8,2.4,2.8c0.8,1,1.5,1.9,2.3,2.9s1.4,2,2.1,3c0.7,1,1.3,2.1,2,3.1
					c0.6,1.1,1.2,2.1,1.8,3.2c0.6,1.1,1.1,2.2,1.7,3.3c0.5,1.1,1,2.2,1.5,3.4c0.5,1.1,0.9,2.3,1.3,3.4c0.4,1.2,0.8,2.3,1.2,3.5
					s0.7,2.4,1,3.6c0.3,1.2,0.6,2.4,0.8,3.6c0.2,1.2,0.5,2.4,0.6,3.6c0.2,1.2,0.3,2.4,0.5,3.7c0.1,1.2,0.2,2.5,0.3,3.7
					s0.1,2.5,0.1,3.7c0,1.2,0,2.5-0.1,3.7c-0.1,1.2-0.2,2.5-0.3,3.7c-0.1,1.2-0.3,2.4-0.5,3.7c-0.2,1.2-0.4,2.4-0.6,3.6
					s-0.5,2.4-0.8,3.6c-0.3,1.2-0.6,2.4-1,3.6c-0.4,1.2-0.7,2.3-1.2,3.5c-0.4,1.2-0.9,2.3-1.3,3.4c-0.5,1.1-1,2.3-1.5,3.4
					c-0.5,1.1-1.1,2.2-1.7,3.3s-1.2,2.2-1.8,3.2c-0.6,1.1-1.3,2.1-2,3.1c-0.7,1-1.4,2-2.1,3c-0.7,1-1.5,2-2.3,2.9
					c-0.8,1-1.6,1.9-2.4,2.8c-0.8,0.9-1.7,1.8-2.5,2.7c-0.9,0.9-1.8,1.7-2.7,2.5s-1.8,1.6-2.8,2.4c-1,0.8-1.9,1.5-2.9,2.3
					c-1,0.7-2,1.4-3,2.1c-1,0.7-2.1,1.3-3.1,2c-1.1,0.6-2.1,1.2-3.2,1.8c-1.1,0.6-2.2,1.1-3.3,1.7s-2.2,1-3.4,1.5s-2.3,0.9-3.4,1.3
					c-1.2,0.4-2.3,0.8-3.5,1.2s-2.4,0.7-3.6,1c-1.2,0.3-2.4,0.6-3.6,0.8c-1.2,0.2-2.4,0.5-3.6,0.6c-1.2,0.2-2.4,0.3-3.7,0.5
					s-2.5,0.2-3.7,0.3c-1.2,0.1-2.5,0.1-3.7,0.1s-2.5,0-3.7-0.1c-1.2-0.1-2.5-0.2-3.7-0.3s-2.4-0.3-3.7-0.5
					c-1.2-0.2-2.4-0.4-3.6-0.6c-1.2-0.2-2.4-0.5-3.6-0.8c-1.2-0.3-2.4-0.6-3.6-1c-1.2-0.4-2.3-0.7-3.5-1.2s-2.3-0.9-3.4-1.3
					s-2.3-1-3.4-1.5s-2.2-1.1-3.3-1.7c-1.1-0.6-2.2-1.2-3.2-1.8c-1.1-0.6-2.1-1.3-3.1-2s-2-1.4-3-2.1c-1-0.7-2-1.5-2.9-2.3
					c-1-0.8-1.9-1.6-2.8-2.4s-1.8-1.7-2.7-2.5c-0.9-0.9-1.7-1.8-2.5-2.7c-0.8-0.9-1.6-1.8-2.4-2.8c-0.8-1-1.5-1.9-2.3-2.9
					c-0.7-1-1.4-2-2.1-3s-1.3-2.1-2-3.1c-0.6-1.1-1.2-2.1-1.8-3.2s-1.1-2.2-1.7-3.3c-0.5-1.1-1-2.2-1.5-3.4s-0.9-2.3-1.3-3.4
					c-0.4-1.2-0.8-2.3-1.2-3.5c-0.4-1.2-0.7-2.4-1-3.6c-0.3-1.2-0.6-2.4-0.8-3.6c-0.2-1.2-0.5-2.4-0.6-3.6s-0.3-2.4-0.5-3.7
					s-0.2-2.5-0.3-3.7c-0.1-1.2-0.1-2.5-0.1-3.7c0-1.2,0-2.5,0.1-3.7s0.2-2.5,0.3-3.7c0.1-1.2,0.3-2.4,0.5-3.7
					c0.2-1.2,0.4-2.4,0.6-3.6c0.2-1.2,0.5-2.4,0.8-3.6s0.6-2.4,1-3.6c0.4-1.2,0.7-2.3,1.2-3.5c0.4-1.2,0.9-2.3,1.3-3.4
					s1-2.3,1.5-3.4s1.1-2.2,1.7-3.3c0.6-1.1,1.2-2.2,1.8-3.2c0.6-1.1,1.3-2.1,2-3.1s1.4-2,2.1-3c0.7-1,1.5-2,2.3-2.9
					c0.8-1,1.6-1.9,2.4-2.8s1.7-1.8,2.5-2.7c0.9-0.9,1.8-1.7,2.7-2.5s1.8-1.6,2.8-2.4c1-0.8,1.9-1.5,2.9-2.3s2-1.4,3-2.1
					c1-0.7,2.1-1.3,3.1-2c1.1-0.6,2.1-1.2,3.2-1.8c1.1-0.6,2.2-1.1,3.3-1.7c1.1-0.5,2.2-1,3.4-1.5s2.3-0.9,3.4-1.3s2.3-0.8,3.5-1.2
					c1.2-0.4,2.4-0.7,3.6-1c1.2-0.3,2.4-0.6,3.6-0.8c1.2-0.2,2.4-0.5,3.6-0.6c1.2-0.2,2.4-0.3,3.7-0.5s2.5-0.2,3.7-0.3
					C596.1,117,597.4,117,598.6,117z"/>
				<path class="st4" d="M598.6,77.1c1.9,0,3.8,0,5.6,0.1c1.9,0.1,3.8,0.2,5.6,0.4s3.7,0.4,5.6,0.7c1.9,0.3,3.7,0.6,5.6,1
					c1.8,0.4,3.7,0.8,5.5,1.2s3.6,1,5.4,1.5s3.6,1.1,5.4,1.8c1.8,0.6,3.5,1.3,5.3,2s3.5,1.5,5.2,2.3c1.7,0.8,3.4,1.7,5,2.5
					c1.7,0.9,3.3,1.8,4.9,2.8c1.6,1,3.2,2,4.8,3c1.6,1,3.1,2.1,4.6,3.3c1.5,1.1,3,2.3,4.5,3.5c1.5,1.2,2.9,2.4,4.3,3.7
					s2.8,2.6,4.1,3.9c1.3,1.3,2.6,2.7,3.9,4.1c1.3,1.4,2.5,2.8,3.7,4.3c1.2,1.5,2.4,2.9,3.5,4.5c1.1,1.5,2.2,3.1,3.3,4.6
					c1,1.6,2.1,3.2,3,4.8c1,1.6,1.9,3.3,2.8,4.9c0.9,1.7,1.7,3.3,2.5,5c0.8,1.7,1.6,3.4,2.3,5.2c0.7,1.7,1.4,3.5,2,5.3
					c0.6,1.8,1.2,3.6,1.8,5.4c0.5,1.8,1,3.6,1.5,5.4s0.9,3.7,1.2,5.5c0.4,1.8,0.7,3.7,1,5.6s0.5,3.7,0.7,5.6
					c0.2,1.9,0.3,3.8,0.4,5.6c0.1,1.9,0.1,3.8,0.1,5.6c0,1.9,0,3.8-0.1,5.6c-0.1,1.9-0.2,3.8-0.4,5.6c-0.2,1.9-0.4,3.7-0.7,5.6
					s-0.6,3.7-1,5.6s-0.8,3.7-1.2,5.5s-1,3.6-1.5,5.4c-0.5,1.8-1.1,3.6-1.8,5.4c-0.6,1.8-1.3,3.5-2,5.3c-0.7,1.7-1.5,3.5-2.3,5.2
					c-0.8,1.7-1.7,3.4-2.5,5c-0.9,1.7-1.8,3.3-2.8,4.9c-1,1.6-2,3.2-3,4.8c-1,1.6-2.1,3.1-3.3,4.6c-1.1,1.5-2.3,3-3.5,4.5
					c-1.2,1.5-2.4,2.9-3.7,4.3s-2.6,2.8-3.9,4.1c-1.3,1.3-2.7,2.6-4.1,3.9s-2.8,2.5-4.3,3.7c-1.5,1.2-2.9,2.4-4.5,3.5
					c-1.5,1.1-3.1,2.2-4.6,3.3c-1.6,1-3.2,2.1-4.8,3c-1.6,1-3.3,1.9-4.9,2.8c-1.7,0.9-3.3,1.7-5,2.5c-1.7,0.8-3.4,1.6-5.2,2.3
					s-3.5,1.4-5.3,2c-1.8,0.6-3.6,1.2-5.4,1.8c-1.8,0.5-3.6,1-5.4,1.5s-3.7,0.9-5.5,1.2c-1.8,0.4-3.7,0.7-5.6,1
					c-1.9,0.3-3.7,0.5-5.6,0.7c-1.9,0.2-3.8,0.3-5.6,0.4c-1.9,0.1-3.8,0.1-5.6,0.1s-3.8,0-5.6-0.1c-1.9-0.1-3.8-0.2-5.6-0.4
					c-1.9-0.2-3.7-0.4-5.6-0.7c-1.9-0.3-3.7-0.6-5.6-1c-1.8-0.4-3.7-0.8-5.5-1.2s-3.6-1-5.4-1.5s-3.6-1.1-5.4-1.8
					c-1.8-0.6-3.5-1.3-5.3-2c-1.7-0.7-3.5-1.5-5.2-2.3c-1.7-0.8-3.4-1.7-5-2.5c-1.7-0.9-3.3-1.8-4.9-2.8c-1.6-1-3.2-2-4.8-3
					s-3.1-2.1-4.6-3.3c-1.5-1.1-3-2.3-4.5-3.5c-1.5-1.2-2.9-2.4-4.3-3.7c-1.4-1.3-2.8-2.6-4.1-3.9s-2.6-2.7-3.9-4.1
					c-1.3-1.4-2.5-2.8-3.7-4.3s-2.4-2.9-3.5-4.5c-1.1-1.5-2.2-3.1-3.3-4.6c-1-1.6-2.1-3.2-3-4.8c-1-1.6-1.9-3.3-2.8-4.9
					c-0.9-1.7-1.7-3.3-2.5-5c-0.8-1.7-1.6-3.4-2.3-5.2s-1.4-3.5-2-5.3s-1.2-3.6-1.8-5.4s-1-3.6-1.5-5.4s-0.9-3.7-1.2-5.5
					c-0.4-1.8-0.7-3.7-1-5.6s-0.5-3.7-0.7-5.6c-0.2-1.9-0.3-3.8-0.4-5.6s-0.1-3.8-0.1-5.6s0-3.8,0.1-5.6s0.2-3.8,0.4-5.6
					c0.2-1.9,0.4-3.7,0.7-5.6s0.6-3.7,1-5.6c0.4-1.8,0.8-3.7,1.2-5.5s1-3.6,1.5-5.4c0.5-1.8,1.1-3.6,1.8-5.4s1.3-3.5,2-5.3
					c0.7-1.7,1.5-3.5,2.3-5.2s1.7-3.4,2.5-5c0.9-1.7,1.8-3.3,2.8-4.9c1-1.6,2-3.2,3-4.8c1-1.6,2.1-3.1,3.3-4.6
					c1.1-1.5,2.3-3,3.5-4.5s2.4-2.9,3.7-4.3c1.3-1.4,2.6-2.8,3.9-4.1s2.7-2.6,4.1-3.9c1.4-1.3,2.8-2.5,4.3-3.7
					c1.5-1.2,2.9-2.4,4.5-3.5c1.5-1.1,3.1-2.2,4.6-3.3c1.6-1,3.2-2.1,4.8-3c1.6-1,3.3-1.9,4.9-2.8c1.7-0.9,3.3-1.7,5-2.5
					c1.7-0.8,3.4-1.6,5.2-2.3c1.7-0.7,3.5-1.4,5.3-2c1.8-0.6,3.6-1.2,5.4-1.8s3.6-1,5.4-1.5s3.7-0.9,5.5-1.2c1.8-0.4,3.7-0.7,5.6-1
					c1.9-0.3,3.7-0.5,5.6-0.7s3.8-0.3,5.6-0.4C594.8,77.1,596.7,77.1,598.6,77.1z"/>
				<path class="st5" d="M598.6,35.6c2.6,0,5.1,0.1,7.7,0.2c2.6,0.1,5.1,0.3,7.7,0.6c2.6,0.3,5.1,0.6,7.6,0.9
					c2.5,0.4,5.1,0.8,7.6,1.3c2.5,0.5,5,1.1,7.5,1.7c2.5,0.6,5,1.3,7.4,2.1c2.5,0.7,4.9,1.5,7.3,2.4c2.4,0.9,4.8,1.8,7.2,2.8
					c2.4,1,4.7,2,7,3.1s4.6,2.2,6.9,3.5s4.5,2.5,6.7,3.8s4.4,2.7,6.5,4.1c2.1,1.4,4.2,2.9,6.3,4.4c2.1,1.5,4.1,3.1,6.1,4.7
					c2,1.6,3.9,3.3,5.8,5c1.9,1.7,3.8,3.5,5.6,5.3c1.8,1.8,3.6,3.7,5.3,5.6c1.7,1.9,3.4,3.8,5,5.8s3.2,4,4.7,6.1
					c1.5,2.1,3,4.2,4.4,6.3c1.4,2.1,2.8,4.3,4.1,6.5s2.6,4.4,3.8,6.7s2.4,4.5,3.5,6.9s2.1,4.7,3.1,7c1,2.4,1.9,4.8,2.8,7.2
					c0.9,2.4,1.7,4.8,2.4,7.3c0.7,2.5,1.4,4.9,2.1,7.4c0.6,2.5,1.2,5,1.7,7.5c0.5,2.5,0.9,5,1.3,7.6c0.4,2.5,0.7,5.1,0.9,7.6
					c0.3,2.6,0.4,5.1,0.6,7.7c0.1,2.6,0.2,5.1,0.2,7.7c0,2.6-0.1,5.1-0.2,7.7c-0.1,2.6-0.3,5.1-0.6,7.7c-0.3,2.6-0.6,5.1-0.9,7.6
					c-0.4,2.5-0.8,5.1-1.3,7.6c-0.5,2.5-1.1,5-1.7,7.5c-0.6,2.5-1.3,5-2.1,7.4s-1.5,4.9-2.4,7.3c-0.9,2.4-1.8,4.8-2.8,7.2
					c-1,2.4-2,4.7-3.1,7c-1.1,2.3-2.2,4.6-3.5,6.9s-2.5,4.5-3.8,6.7s-2.7,4.4-4.1,6.5c-1.4,2.1-2.9,4.2-4.4,6.3
					c-1.5,2.1-3.1,4.1-4.7,6.1c-1.6,2-3.3,3.9-5,5.8c-1.7,1.9-3.5,3.8-5.3,5.6c-1.8,1.8-3.7,3.6-5.6,5.3c-1.9,1.7-3.8,3.4-5.8,5
					c-2,1.6-4,3.2-6.1,4.7c-2.1,1.5-4.2,3-6.3,4.4s-4.3,2.8-6.5,4.1c-2.2,1.3-4.4,2.6-6.7,3.8s-4.5,2.4-6.9,3.5
					c-2.3,1.1-4.7,2.1-7,3.1c-2.4,1-4.8,1.9-7.2,2.8c-2.4,0.9-4.8,1.7-7.3,2.4s-4.9,1.4-7.4,2.1c-2.5,0.6-5,1.2-7.5,1.7
					c-2.5,0.5-5,0.9-7.6,1.3c-2.5,0.4-5.1,0.7-7.6,0.9c-2.6,0.3-5.1,0.4-7.7,0.6c-2.6,0.1-5.1,0.2-7.7,0.2c-2.6,0-5.1-0.1-7.7-0.2
					c-2.6-0.1-5.1-0.3-7.7-0.6s-5.1-0.6-7.6-0.9c-2.5-0.4-5.1-0.8-7.6-1.3c-2.5-0.5-5-1.1-7.5-1.7c-2.5-0.6-5-1.3-7.4-2.1
					s-4.9-1.5-7.3-2.4c-2.4-0.9-4.8-1.8-7.2-2.8c-2.4-1-4.7-2-7-3.1c-2.3-1.1-4.6-2.2-6.9-3.5c-2.3-1.2-4.5-2.5-6.7-3.8
					c-2.2-1.3-4.4-2.7-6.5-4.1s-4.2-2.9-6.3-4.4c-2.1-1.5-4.1-3.1-6.1-4.7s-3.9-3.3-5.8-5c-1.9-1.7-3.8-3.5-5.6-5.3
					c-1.8-1.8-3.6-3.7-5.3-5.6c-1.7-1.9-3.4-3.8-5-5.8c-1.6-2-3.2-4-4.7-6.1c-1.5-2.1-3-4.2-4.4-6.3c-1.4-2.1-2.8-4.3-4.1-6.5
					s-2.6-4.4-3.8-6.7s-2.4-4.5-3.5-6.9c-1.1-2.3-2.1-4.7-3.1-7c-1-2.4-1.9-4.8-2.8-7.2s-1.7-4.8-2.4-7.3c-0.7-2.5-1.4-4.9-2.1-7.4
					c-0.6-2.5-1.2-5-1.7-7.5c-0.5-2.5-0.9-5-1.3-7.6c-0.4-2.5-0.7-5.1-0.9-7.6c-0.3-2.6-0.4-5.1-0.6-7.7c-0.1-2.6-0.2-5.1-0.2-7.7
					c0-2.6,0.1-5.1,0.2-7.7c0.1-2.6,0.3-5.1,0.6-7.7c0.3-2.6,0.6-5.1,0.9-7.6c0.4-2.5,0.8-5.1,1.3-7.6c0.5-2.5,1.1-5,1.7-7.5
					c0.6-2.5,1.3-5,2.1-7.4c0.7-2.5,1.5-4.9,2.4-7.3c0.9-2.4,1.8-4.8,2.8-7.2c1-2.4,2-4.7,3.1-7s2.2-4.6,3.5-6.9s2.5-4.5,3.8-6.7
					s2.7-4.4,4.1-6.5c1.4-2.1,2.9-4.2,4.4-6.3c1.5-2.1,3.1-4.1,4.7-6.1s3.3-3.9,5-5.8c1.7-1.9,3.5-3.8,5.3-5.6
					c1.8-1.8,3.7-3.6,5.6-5.3c1.9-1.7,3.8-3.4,5.8-5c2-1.6,4-3.2,6.1-4.7c2.1-1.5,4.2-3,6.3-4.4s4.3-2.8,6.5-4.1s4.4-2.6,6.7-3.8
					c2.3-1.2,4.5-2.4,6.9-3.5c2.3-1.1,4.7-2.1,7-3.1c2.4-1,4.8-1.9,7.2-2.8c2.4-0.9,4.8-1.7,7.3-2.4c2.5-0.7,4.9-1.4,7.4-2.1
					c2.5-0.6,5-1.2,7.5-1.7c2.5-0.5,5-0.9,7.6-1.3c2.5-0.4,5.1-0.7,7.6-0.9c2.6-0.3,5.1-0.4,7.7-0.6C593.5,35.7,596,35.6,598.6,35.6
					z"/>
			</g>
		</g>
	</g>
</g>
<g>
	<g>
		<defs>
			<path id="SVGID_21_" d="M222,229.7v-85c0-1.1,0.2-2.1,0.6-3.1s1-1.8,1.7-2.6c0.8-0.8,1.6-1.3,2.6-1.7c1-0.4,2-0.6,3.1-0.6h146
				c1.1,0,2.1,0.2,3.1,0.6c1,0.4,1.8,1,2.6,1.7c0.8,0.8,1.3,1.6,1.7,2.6c0.4,1,0.6,2,0.6,3.1v85H222z"/>
		</defs>
		<clipPath id="SVGID_4_">
			<use xlink:href="#SVGID_21_"  style="overflow:visible;"/>
		</clipPath>
		<path style="opacity:0;clip-path:url(#SVGID_4_);fill:none;stroke:#D3D3D3;" d="M222.5,229.2v-84.5c0-0.5,0-1,0.1-1.5
			c0.1-0.5,0.2-1,0.4-1.4c0.2-0.5,0.4-0.9,0.7-1.3c0.3-0.4,0.6-0.8,0.9-1.1s0.7-0.7,1.1-0.9c0.4-0.3,0.8-0.5,1.3-0.7
			c0.5-0.2,0.9-0.3,1.4-0.4c0.5-0.1,1-0.1,1.5-0.1h146c0.5,0,1,0,1.5,0.1c0.5,0.1,1,0.2,1.4,0.4c0.5,0.2,0.9,0.4,1.3,0.7
			c0.4,0.3,0.8,0.6,1.1,0.9s0.7,0.7,0.9,1.1c0.3,0.4,0.5,0.8,0.7,1.3c0.2,0.5,0.3,0.9,0.4,1.4c0.1,0.5,0.1,1,0.1,1.5v84.5H222.5z"/>
	</g>
</g>
<g>
	<g>
		<defs>
			<path id="SVGID_23_" d="M400,229.7v-85c0-1.1,0.2-2.1,0.6-3.1s1-1.8,1.7-2.6s1.6-1.3,2.6-1.7c1-0.4,2-0.6,3.1-0.6h146
				c1.1,0,2.1,0.2,3.1,0.6c1,0.4,1.8,1,2.6,1.7c0.8,0.8,1.3,1.6,1.7,2.6c0.4,1,0.6,2,0.6,3.1v85H400z"/>
		</defs>
		<clipPath id="SVGID_5_">
			<use xlink:href="#SVGID_23_"  style="overflow:visible;"/>
		</clipPath>
		<path style="opacity:0;clip-path:url(#SVGID_5_);fill:none;stroke:#D3D3D3;" d="M400.5,229.2v-84.5c0-0.5,0-1,0.1-1.5
			c0.1-0.5,0.2-1,0.4-1.4s0.4-0.9,0.7-1.3c0.3-0.4,0.6-0.8,0.9-1.1c0.3-0.3,0.7-0.7,1.1-0.9c0.4-0.3,0.8-0.5,1.3-0.7
			c0.5-0.2,0.9-0.3,1.4-0.4c0.5-0.1,1-0.1,1.5-0.1h146c0.5,0,1,0,1.5,0.1c0.5,0.1,1,0.2,1.4,0.4c0.5,0.2,0.9,0.4,1.3,0.7
			c0.4,0.3,0.8,0.6,1.1,0.9s0.7,0.7,0.9,1.1c0.3,0.4,0.5,0.8,0.7,1.3c0.2,0.5,0.3,0.9,0.4,1.4c0.1,0.5,0.1,1,0.1,1.5v84.5H400.5z"/>
	</g>
</g>
</svg>
