<?xml version="1.0" encoding="utf-8"?>
<!-- Generator: Adobe Illustrator 25.2.0, SVG Export Plug-In . SVG Version: 6.00 Build 0)  -->
<svg version="1.1" id="Layer_1" xmlns="http://www.w3.org/2000/svg" xmlns:xlink="http://www.w3.org/1999/xlink" x="0px" y="0px"
	 viewBox="0 0 600 270.1" style="enable-background:new 0 0 600 270.1;" xml:space="preserve">
<style type="text/css">
	.st0{fill:#FFFFFF;}
	.st1{opacity:0.502;enable-background:new    ;}
	.st2{opacity:0.1882;clip-path:url(#SVGID_2_);fill:none;stroke:#FE8840;stroke-width:50;}
	.st3{opacity:7.840000e-02;clip-path:url(#SVGID_2_);fill:none;stroke:#FEFEFE;stroke-width:50;}
	.st4{opacity:0.1098;clip-path:url(#SVGID_2_);fill:none;stroke:#FE8840;stroke-width:50;}
	.st5{opacity:0.2314;clip-path:url(#SVGID_2_);fill:none;stroke:#FE8840;stroke-width:50;}
	.st6{opacity:0.1882;clip-path:url(#SVGID_4_);fill:none;stroke:#FE8840;stroke-width:50;}
	.st7{opacity:7.840000e-02;clip-path:url(#SVGID_4_);fill:none;stroke:#FEFEFE;stroke-width:50;}
	.st8{opacity:0.1098;clip-path:url(#SVGID_4_);fill:none;stroke:#FE8840;stroke-width:50;}
	.st9{opacity:0.2314;clip-path:url(#SVGID_4_);fill:none;stroke:#FE8840;stroke-width:50;}
	.st10{fill:#F9F9F9;}
	.st11{fill:url(#SVGID_5_);}
	.st12{clip-path:url(#SVGID_7_);enable-background:new    ;}
	.st13{opacity:0.1882;clip-path:url(#SVGID_9_);enable-background:new    ;}
	.st14{opacity:0.3216;clip-path:url(#SVGID_11_);fill:none;stroke:#F3F3F3;stroke-width:39;}
	.st15{clip-path:url(#SVGID_13_);enable-background:new    ;}
	.st16{opacity:0.1882;clip-path:url(#SVGID_15_);enable-background:new    ;}
	.st17{opacity:0.3216;clip-path:url(#SVGID_17_);fill:none;stroke:#F3F3F3;stroke-width:39;}
	.st18{fill:url(#SVGID_18_);}
	.st19{fill:#E8E8E8;}
	.st20{enable-background:new    ;}
	.st21{opacity:0.1882;clip-path:url(#SVGID_20_);fill:none;stroke:#FE8840;stroke-width:50;}
	.st22{opacity:7.840000e-02;clip-path:url(#SVGID_20_);fill:none;stroke:#FEFEFE;stroke-width:50;}
	.st23{opacity:0.1098;clip-path:url(#SVGID_20_);fill:none;stroke:#FE8840;stroke-width:50;}
	.st24{opacity:0.2314;clip-path:url(#SVGID_20_);fill:none;stroke:#FE8840;stroke-width:50;}
	.st25{opacity:0;clip-path:url(#SVGID_22_);fill:none;stroke:#D3D3D3;}
	.st26{opacity:0;clip-path:url(#SVGID_24_);fill:none;stroke:#D3D3D3;}
	.st27{opacity:0;clip-path:url(#SVGID_26_);fill:none;stroke:#D3D3D3;}
	.st28{opacity:0;clip-path:url(#SVGID_28_);fill:none;stroke:#D3D3D3;}
	.st29{opacity:0;clip-path:url(#SVGID_30_);fill:none;stroke:#D3D3D3;}
	.st30{opacity:0;clip-path:url(#SVGID_32_);fill:none;stroke:#D3D3D3;}
	.st31{opacity:0;clip-path:url(#SVGID_34_);fill:none;stroke:#D3D3D3;}
	.st32{opacity:0;clip-path:url(#SVGID_36_);fill:none;stroke:#D3D3D3;}
	.st33{opacity:0;clip-path:url(#SVGID_38_);fill:none;stroke:#D3D3D3;}
</style>
<rect class="st0" width="600" height="1892"/>
<g>
	<path class="st10" d="M600-28.2c0,0-66.2,100.8-91,138.6c-4.4,6.6-7.5,11.3-8.7,13.2c-8.1,12.3-17.1,38.7-51.8,35.2H0V-205h600
		V-28.2z"/>
	<linearGradient id="SVGID_2_" gradientUnits="userSpaceOnUse" x1="0" y1="151.2207" x2="423.989" y2="151.2207">
		<stop  offset="0" style="stop-color:#FF3D67"/>
		<stop  offset="1" style="stop-color:#FF5C4C"/>
	</linearGradient>
	<path style="fill:url(#SVGID_2_);" d="M0,48c0,0,361.5,0,383.3,0c40.8,0,46.3,33.7,36.4,52.2c-21,41.4-29.2,57.9-36.4,72.8
		c-7.2,14.9-22,28.8-63.8,31.9C277.7,208.1,0,254.4,0,254.4V48z"/>
</g>
<g>
	<g>
		<defs>
			<polygon id="SVGID_6_" points="0.2,224.2 0,48.2 136.4,48.2 136.4,224.2 			"/>
		</defs>
		<clipPath id="SVGID_4_">
			<use xlink:href="#SVGID_6_"  style="overflow:visible;"/>
		</clipPath>
		<g style="clip-path:url(#SVGID_4_);enable-background:new    ;">
			<g>
				<defs>
					<rect id="SVGID_8_" y="48" width="136.5" height="176.2"/>
				</defs>
				<clipPath id="SVGID_5_">
					<use xlink:href="#SVGID_8_"  style="overflow:visible;"/>
				</clipPath>
				<g style="opacity:0.1882;clip-path:url(#SVGID_5_);enable-background:new    ;">
					<g>
						<defs>
							<rect id="SVGID_10_" y="48" width="136.5" height="176.2"/>
						</defs>
						<clipPath id="SVGID_7_">
							<use xlink:href="#SVGID_10_"  style="overflow:visible;"/>
						</clipPath>
						<path style="opacity:0.3216;clip-path:url(#SVGID_7_);fill:none;stroke:#F3F3F3;stroke-width:39;" d="M25.4,153.1
							c-1.6,0-3.2-0.1-4.8-0.2s-3.2-0.4-4.7-0.7c-1.6-0.3-3.1-0.7-4.6-1.2c-1.5-0.5-3-1-4.5-1.6c-1.5-0.6-2.9-1.3-4.3-2
							c-1.4-0.8-2.8-1.6-4.1-2.5C-3,144-4.3,143-5.5,142s-2.4-2.1-3.5-3.2s-2.2-2.3-3.2-3.5c-1-1.2-2-2.5-2.8-3.8
							c-0.9-1.3-1.7-2.7-2.5-4.1s-1.4-2.8-2-4.3c-0.6-1.5-1.1-3-1.6-4.5c-0.5-1.5-0.9-3.1-1.2-4.6s-0.5-3.1-0.7-4.7
							c-0.2-1.6-0.2-3.2-0.2-4.8c0-1.6,0.1-3.2,0.2-4.8c0.2-1.6,0.4-3.2,0.7-4.7s0.7-3.1,1.2-4.6c0.5-1.5,1-3,1.6-4.5s1.3-2.9,2-4.3
							c0.8-1.4,1.6-2.8,2.5-4.1c0.9-1.3,1.8-2.6,2.8-3.8c1-1.2,2.1-2.4,3.2-3.5c1.1-1.1,2.3-2.2,3.5-3.2c1.2-1,2.5-2,3.8-2.8
							c1.3-0.9,2.7-1.7,4.1-2.5c1.4-0.8,2.8-1.4,4.3-2c1.5-0.6,3-1.1,4.5-1.6c1.5-0.5,3.1-0.9,4.6-1.2c1.6-0.3,3.1-0.5,4.7-0.7
							s3.2-0.2,4.8-0.2s3.2,0.1,4.8,0.2c1.6,0.2,3.2,0.4,4.7,0.7c1.6,0.3,3.1,0.7,4.6,1.2c1.5,0.5,3,1,4.5,1.6
							c1.5,0.6,2.9,1.3,4.3,2s2.8,1.6,4.1,2.5c1.3,0.9,2.6,1.8,3.8,2.8c1.2,1,2.4,2.1,3.5,3.2s2.2,2.3,3.2,3.5c1,1.2,2,2.5,2.8,3.8
							s1.7,2.7,2.5,4.1c0.8,1.4,1.4,2.8,2,4.3c0.6,1.5,1.1,3,1.6,4.5c0.5,1.5,0.9,3.1,1.2,4.6c0.3,1.6,0.5,3.1,0.7,4.7
							c0.2,1.6,0.2,3.2,0.2,4.8c0,1.6-0.1,3.2-0.2,4.8c-0.2,1.6-0.4,3.2-0.7,4.7c-0.3,1.6-0.7,3.1-1.2,4.6c-0.5,1.5-1,3-1.6,4.5
							c-0.6,1.5-1.3,2.9-2,4.3c-0.8,1.4-1.6,2.8-2.5,4.1c-0.9,1.3-1.8,2.6-2.8,3.8c-1,1.2-2.1,2.4-3.2,3.5s-2.3,2.2-3.5,3.2
							c-1.2,1-2.5,2-3.8,2.8c-1.3,0.9-2.7,1.7-4.1,2.5s-2.8,1.4-4.3,2c-1.5,0.6-3,1.1-4.5,1.6c-1.5,0.5-3.1,0.9-4.6,1.2
							c-1.6,0.3-3.1,0.5-4.7,0.7C28.6,153,27,153.1,25.4,153.1z"/>
						<path style="opacity:0.3216;clip-path:url(#SVGID_7_);fill:none;stroke:#F3F3F3;stroke-width:39;" d="M25.4,132.7
							c-0.9,0-1.9,0-2.8-0.1c-0.9-0.1-1.8-0.2-2.8-0.4c-0.9-0.2-1.8-0.4-2.7-0.7c-0.9-0.3-1.8-0.6-2.6-0.9c-0.9-0.4-1.7-0.8-2.5-1.2
							c-0.8-0.4-1.6-0.9-2.4-1.4c-0.8-0.5-1.5-1.1-2.2-1.7c-0.7-0.6-1.4-1.2-2.1-1.9s-1.3-1.3-1.9-2.1c-0.6-0.7-1.1-1.5-1.7-2.2
							c-0.5-0.8-1-1.6-1.4-2.4c-0.4-0.8-0.8-1.7-1.2-2.5c-0.4-0.9-0.7-1.7-0.9-2.6c-0.3-0.9-0.5-1.8-0.7-2.7
							c-0.2-0.9-0.3-1.8-0.4-2.8c-0.1-0.9-0.1-1.9-0.1-2.8c0-0.9,0-1.9,0.1-2.8c0.1-0.9,0.2-1.8,0.4-2.8c0.2-0.9,0.4-1.8,0.7-2.7
							c0.3-0.9,0.6-1.8,0.9-2.6c0.4-0.9,0.8-1.7,1.2-2.5s0.9-1.6,1.4-2.4c0.5-0.8,1.1-1.5,1.7-2.2c0.6-0.7,1.2-1.4,1.9-2.1
							C6,83.6,6.7,83,7.4,82.4s1.5-1.1,2.2-1.7c0.8-0.5,1.6-1,2.4-1.4c0.8-0.4,1.7-0.8,2.5-1.2c0.9-0.4,1.7-0.7,2.6-0.9
							c0.9-0.3,1.8-0.5,2.7-0.7c0.9-0.2,1.8-0.3,2.8-0.4s1.9-0.1,2.8-0.1c0.9,0,1.9,0,2.8,0.1s1.8,0.2,2.8,0.4
							c0.9,0.2,1.8,0.4,2.7,0.7c0.9,0.3,1.8,0.6,2.6,0.9s1.7,0.8,2.5,1.2c0.8,0.4,1.6,0.9,2.4,1.4c0.8,0.5,1.5,1.1,2.2,1.7
							c0.7,0.6,1.4,1.2,2.1,1.9c0.7,0.7,1.3,1.3,1.9,2.1c0.6,0.7,1.1,1.5,1.7,2.2c0.5,0.8,1,1.6,1.4,2.4c0.4,0.8,0.8,1.7,1.2,2.5
							c0.4,0.9,0.7,1.7,0.9,2.6c0.3,0.9,0.5,1.8,0.7,2.7c0.2,0.9,0.3,1.8,0.4,2.8c0.1,0.9,0.1,1.9,0.1,2.8c0,0.9,0,1.9-0.1,2.8
							c-0.1,0.9-0.2,1.8-0.4,2.8c-0.2,0.9-0.4,1.8-0.7,2.7c-0.3,0.9-0.6,1.8-0.9,2.6c-0.4,0.9-0.8,1.7-1.2,2.5
							c-0.4,0.8-0.9,1.6-1.4,2.4c-0.5,0.8-1.1,1.5-1.7,2.2c-0.6,0.7-1.2,1.4-1.9,2.1c-0.7,0.7-1.3,1.3-2.1,1.9
							c-0.7,0.6-1.5,1.1-2.2,1.7c-0.8,0.5-1.6,1-2.4,1.4c-0.8,0.4-1.7,0.8-2.5,1.2c-0.9,0.4-1.7,0.7-2.6,0.9
							c-0.9,0.3-1.8,0.5-2.7,0.7c-0.9,0.2-1.8,0.3-2.8,0.4C27.3,132.7,26.3,132.7,25.4,132.7z"/>
						<path style="opacity:0.3216;clip-path:url(#SVGID_7_);fill:none;stroke:#F3F3F3;stroke-width:39;" d="M25.4,177.6
							c-1.2,0-2.4,0-3.6-0.1c-1.2-0.1-2.4-0.1-3.6-0.3s-2.4-0.3-3.6-0.4c-1.2-0.2-2.4-0.4-3.5-0.6c-1.2-0.2-2.3-0.5-3.5-0.8
							c-1.2-0.3-2.3-0.6-3.5-1s-2.3-0.7-3.4-1.1s-2.2-0.8-3.4-1.3s-2.2-0.9-3.3-1.5c-1.1-0.5-2.2-1.1-3.2-1.6
							c-1.1-0.6-2.1-1.2-3.1-1.8s-2-1.3-3-1.9c-1-0.7-2-1.4-2.9-2.1c-1-0.7-1.9-1.5-2.8-2.2c-0.9-0.8-1.8-1.5-2.7-2.3
							c-0.9-0.8-1.8-1.6-2.6-2.5s-1.7-1.7-2.5-2.6c-0.8-0.9-1.6-1.8-2.3-2.7c-0.8-0.9-1.5-1.9-2.2-2.8s-1.4-1.9-2.1-2.9
							c-0.7-1-1.3-2-1.9-3c-0.6-1-1.2-2.1-1.8-3.1c-0.6-1.1-1.1-2.1-1.6-3.2c-0.5-1.1-1-2.2-1.5-3.3c-0.5-1.1-0.9-2.2-1.3-3.4
							c-0.4-1.1-0.8-2.3-1.1-3.4c-0.3-1.1-0.7-2.3-1-3.5s-0.6-2.3-0.8-3.5s-0.4-2.4-0.6-3.5s-0.3-2.4-0.4-3.6
							c-0.1-1.2-0.2-2.4-0.3-3.6c-0.1-1.2-0.1-2.4-0.1-3.6c0-1.2,0-2.4,0.1-3.6c0.1-1.2,0.1-2.4,0.3-3.6c0.1-1.2,0.3-2.4,0.4-3.6
							s0.4-2.4,0.6-3.5c0.2-1.2,0.5-2.3,0.8-3.5s0.6-2.3,1-3.5c0.3-1.1,0.7-2.3,1.1-3.4c0.4-1.1,0.8-2.2,1.3-3.4
							c0.5-1.1,0.9-2.2,1.5-3.3s1.1-2.2,1.6-3.2c0.6-1.1,1.2-2.1,1.8-3.1c0.6-1,1.3-2,1.9-3c0.7-1,1.4-2,2.1-2.9s1.5-1.9,2.2-2.8
							c0.8-0.9,1.5-1.8,2.3-2.7c0.8-0.9,1.6-1.8,2.5-2.6s1.7-1.7,2.6-2.5c0.9-0.8,1.8-1.6,2.7-2.3c0.9-0.8,1.9-1.5,2.8-2.2
							s1.9-1.4,2.9-2.1c1-0.7,2-1.3,3-1.9c1-0.6,2.1-1.2,3.1-1.8c1.1-0.6,2.1-1.1,3.2-1.6c1.1-0.5,2.2-1,3.3-1.5
							c1.1-0.5,2.2-0.9,3.4-1.3c1.1-0.4,2.3-0.8,3.4-1.1c1.1-0.3,2.3-0.7,3.5-1s2.3-0.6,3.5-0.8c1.2-0.2,2.4-0.4,3.5-0.6
							c1.2-0.2,2.4-0.3,3.6-0.4s2.4-0.2,3.6-0.3c1.2-0.1,2.4-0.1,3.6-0.1c1.2,0,2.4,0,3.6,0.1s2.4,0.1,3.6,0.3s2.4,0.3,3.6,0.4
							s2.4,0.4,3.5,0.6c1.2,0.2,2.3,0.5,3.5,0.8s2.3,0.6,3.5,1c1.1,0.3,2.3,0.7,3.4,1.1c1.1,0.4,2.2,0.8,3.4,1.3
							c1.1,0.5,2.2,0.9,3.3,1.5c1.1,0.5,2.2,1.1,3.2,1.6c1.1,0.6,2.1,1.2,3.1,1.8c1,0.6,2,1.3,3,1.9s2,1.4,2.9,2.1
							c1,0.7,1.9,1.5,2.8,2.2c0.9,0.8,1.8,1.5,2.7,2.3c0.9,0.8,1.8,1.6,2.6,2.5c0.8,0.8,1.7,1.7,2.5,2.6c0.8,0.9,1.6,1.8,2.3,2.7
							c0.8,0.9,1.5,1.9,2.2,2.8c0.7,1,1.4,1.9,2.1,2.9c0.7,1,1.3,2,1.9,3c0.6,1,1.2,2.1,1.8,3.1c0.6,1.1,1.1,2.1,1.6,3.2
							s1,2.2,1.5,3.3c0.5,1.1,0.9,2.2,1.3,3.4s0.8,2.3,1.1,3.4c0.3,1.1,0.7,2.3,1,3.5c0.3,1.2,0.6,2.3,0.8,3.5
							c0.2,1.2,0.4,2.4,0.6,3.5s0.3,2.4,0.4,3.6c0.1,1.2,0.2,2.4,0.3,3.6s0.1,2.4,0.1,3.6c0,1.2,0,2.4-0.1,3.6
							c-0.1,1.2-0.1,2.4-0.3,3.6c-0.1,1.2-0.3,2.4-0.4,3.6s-0.4,2.4-0.6,3.5c-0.2,1.2-0.5,2.3-0.8,3.5c-0.3,1.2-0.6,2.3-1,3.5
							c-0.3,1.1-0.7,2.3-1.1,3.4c-0.4,1.1-0.8,2.2-1.3,3.4c-0.5,1.1-0.9,2.2-1.5,3.3c-0.5,1.1-1.1,2.2-1.6,3.2s-1.2,2.1-1.8,3.1
							c-0.6,1-1.3,2-1.9,3s-1.4,2-2.1,2.9c-0.7,1-1.5,1.9-2.2,2.8c-0.8,0.9-1.5,1.8-2.3,2.7c-0.8,0.9-1.6,1.8-2.5,2.6
							c-0.8,0.8-1.7,1.7-2.6,2.5c-0.9,0.8-1.8,1.6-2.7,2.3c-0.9,0.8-1.9,1.5-2.8,2.2c-1,0.7-1.9,1.4-2.9,2.1c-1,0.7-2,1.3-3,1.9
							c-1,0.6-2.1,1.2-3.1,1.8c-1.1,0.6-2.1,1.1-3.2,1.6c-1.1,0.5-2.2,1-3.3,1.5s-2.2,0.9-3.4,1.3s-2.3,0.8-3.4,1.1
							c-1.1,0.3-2.3,0.7-3.5,1s-2.3,0.6-3.5,0.8c-1.2,0.2-2.4,0.4-3.5,0.6c-1.2,0.2-2.4,0.3-3.6,0.4s-2.4,0.2-3.6,0.3
							C27.8,177.6,26.6,177.6,25.4,177.6z"/>
					</g>
				</g>
			</g>
		</g>
	</g>
</g>
<g>
	<g>
		<defs>
			<path id="SVGID_12_" d="M156.4,228.1v-129h216.5v83.7c0,0-7.7,15.6-52,19.9c-13.6,1.3-35,5.5-57.2,8.9
				C213.5,219.3,156.4,228.1,156.4,228.1z"/>
		</defs>
		<clipPath id="SVGID_9_">
			<use xlink:href="#SVGID_12_"  style="overflow:visible;"/>
		</clipPath>
		<g style="clip-path:url(#SVGID_9_);enable-background:new    ;">
			<g>
				<defs>
					<rect id="SVGID_14_" x="156.2" y="99" width="216.8" height="129.2"/>
				</defs>
				<clipPath id="SVGID_11_">
					<use xlink:href="#SVGID_14_"  style="overflow:visible;"/>
				</clipPath>
				<g style="opacity:0.1882;clip-path:url(#SVGID_11_);enable-background:new    ;">
					<g>
						<defs>
							<rect id="SVGID_16_" x="156.2" y="99" width="216.8" height="129.2"/>
						</defs>
						<clipPath id="SVGID_13_">
							<use xlink:href="#SVGID_16_"  style="overflow:visible;"/>
						</clipPath>
						<path style="opacity:0.3216;clip-path:url(#SVGID_13_);fill:none;stroke:#F3F3F3;stroke-width:39;" d="M262.9,248.6
							c-1.6,0-3.2-0.1-4.8-0.2c-1.6-0.2-3.2-0.4-4.7-0.7c-1.6-0.3-3.1-0.7-4.6-1.2c-1.5-0.5-3-1-4.5-1.6s-2.9-1.3-4.3-2
							c-1.4-0.8-2.8-1.6-4.1-2.5c-1.3-0.9-2.6-1.8-3.8-2.8s-2.4-2.1-3.5-3.2c-1.1-1.1-2.2-2.3-3.2-3.5c-1-1.2-2-2.5-2.8-3.8
							c-0.9-1.3-1.7-2.7-2.5-4.1c-0.8-1.4-1.4-2.8-2-4.3c-0.6-1.5-1.1-3-1.6-4.5c-0.5-1.5-0.9-3.1-1.2-4.6c-0.3-1.6-0.5-3.1-0.7-4.7
							c-0.2-1.6-0.2-3.2-0.2-4.8c0-1.6,0.1-3.2,0.2-4.8c0.2-1.6,0.4-3.2,0.7-4.7s0.7-3.1,1.2-4.6c0.5-1.5,1-3,1.6-4.5s1.3-2.9,2-4.3
							c0.8-1.4,1.6-2.8,2.5-4.1s1.8-2.6,2.8-3.8c1-1.2,2.1-2.4,3.2-3.5c1.1-1.1,2.3-2.2,3.5-3.2c1.2-1,2.5-2,3.8-2.8
							s2.7-1.7,4.1-2.5c1.4-0.8,2.8-1.4,4.3-2c1.5-0.6,3-1.1,4.5-1.6c1.5-0.5,3.1-0.9,4.6-1.2c1.6-0.3,3.1-0.5,4.7-0.7
							c1.6-0.2,3.2-0.2,4.8-0.2c1.6,0,3.2,0.1,4.8,0.2s3.2,0.4,4.7,0.7c1.6,0.3,3.1,0.7,4.6,1.2c1.5,0.5,3,1,4.5,1.6
							c1.5,0.6,2.9,1.3,4.3,2c1.4,0.8,2.8,1.6,4.1,2.5c1.3,0.9,2.6,1.8,3.8,2.8c1.2,1,2.4,2.1,3.5,3.2c1.1,1.1,2.2,2.3,3.2,3.5
							s2,2.5,2.8,3.8s1.7,2.7,2.5,4.1s1.4,2.8,2,4.3s1.1,3,1.6,4.5c0.5,1.5,0.9,3.1,1.2,4.6s0.5,3.1,0.7,4.7s0.2,3.2,0.2,4.8
							c0,1.6-0.1,3.2-0.2,4.8c-0.2,1.6-0.4,3.2-0.7,4.7c-0.3,1.6-0.7,3.1-1.2,4.6c-0.5,1.5-1,3-1.6,4.5c-0.6,1.5-1.3,2.9-2,4.3
							s-1.6,2.8-2.5,4.1c-0.9,1.3-1.8,2.6-2.8,3.8s-2.1,2.4-3.2,3.5s-2.3,2.2-3.5,3.2c-1.2,1-2.5,2-3.8,2.8
							c-1.3,0.9-2.7,1.7-4.1,2.5s-2.8,1.4-4.3,2c-1.5,0.6-3,1.1-4.5,1.6c-1.5,0.5-3.1,0.9-4.6,1.2c-1.6,0.3-3.1,0.5-4.7,0.7
							S264.5,248.6,262.9,248.6z"/>
						<path style="opacity:0.3216;clip-path:url(#SVGID_13_);fill:none;stroke:#F3F3F3;stroke-width:39;" d="M262.9,228.2
							c-0.9,0-1.9,0-2.8-0.1c-0.9-0.1-1.8-0.2-2.8-0.4c-0.9-0.2-1.8-0.4-2.7-0.7c-0.9-0.3-1.8-0.6-2.6-0.9c-0.9-0.4-1.7-0.8-2.5-1.2
							c-0.8-0.4-1.6-0.9-2.4-1.4s-1.5-1.1-2.2-1.7c-0.7-0.6-1.4-1.2-2.1-1.9s-1.3-1.3-1.9-2.1c-0.6-0.7-1.1-1.5-1.7-2.2
							c-0.5-0.8-1-1.6-1.4-2.4s-0.8-1.7-1.2-2.5c-0.4-0.9-0.7-1.7-0.9-2.6c-0.3-0.9-0.5-1.8-0.7-2.7c-0.2-0.9-0.3-1.8-0.4-2.8
							c-0.1-0.9-0.1-1.9-0.1-2.8c0-0.9,0-1.9,0.1-2.8c0.1-0.9,0.2-1.8,0.4-2.8c0.2-0.9,0.4-1.8,0.7-2.7c0.3-0.9,0.6-1.8,0.9-2.6
							c0.4-0.9,0.8-1.7,1.2-2.5s0.9-1.6,1.4-2.4c0.5-0.8,1.1-1.5,1.7-2.2c0.6-0.7,1.2-1.4,1.9-2.1s1.3-1.3,2.1-1.9s1.5-1.1,2.2-1.7
							c0.8-0.5,1.6-1,2.4-1.4c0.8-0.4,1.7-0.8,2.5-1.2c0.9-0.4,1.7-0.7,2.6-0.9s1.8-0.5,2.7-0.7c0.9-0.2,1.8-0.3,2.8-0.4
							c0.9-0.1,1.9-0.1,2.8-0.1c0.9,0,1.9,0,2.8,0.1c0.9,0.1,1.8,0.2,2.8,0.4c0.9,0.2,1.8,0.4,2.7,0.7c0.9,0.3,1.8,0.6,2.6,0.9
							c0.9,0.4,1.7,0.8,2.5,1.2c0.8,0.4,1.6,0.9,2.4,1.4c0.8,0.5,1.5,1.1,2.2,1.7c0.7,0.6,1.4,1.2,2.1,1.9s1.3,1.3,1.9,2.1
							c0.6,0.7,1.1,1.5,1.7,2.2c0.5,0.8,1,1.6,1.4,2.4s0.8,1.7,1.2,2.5c0.4,0.9,0.7,1.7,0.9,2.6c0.3,0.9,0.5,1.8,0.7,2.7
							c0.2,0.9,0.3,1.8,0.4,2.8s0.1,1.9,0.1,2.8c0,0.9,0,1.9-0.1,2.8c-0.1,0.9-0.2,1.8-0.4,2.8c-0.2,0.9-0.4,1.8-0.7,2.7
							c-0.3,0.9-0.6,1.8-0.9,2.6c-0.4,0.9-0.8,1.7-1.2,2.5s-0.9,1.6-1.4,2.4c-0.5,0.8-1.1,1.5-1.7,2.2c-0.6,0.7-1.2,1.4-1.9,2.1
							s-1.3,1.3-2.1,1.9c-0.7,0.6-1.5,1.1-2.2,1.7s-1.6,1-2.4,1.4c-0.8,0.4-1.7,0.8-2.5,1.2c-0.9,0.4-1.7,0.7-2.6,0.9
							c-0.9,0.3-1.8,0.5-2.7,0.7c-0.9,0.2-1.8,0.3-2.8,0.4C264.7,228.1,263.8,228.2,262.9,228.2z"/>
						<path style="opacity:0.3216;clip-path:url(#SVGID_13_);fill:none;stroke:#F3F3F3;stroke-width:39;" d="M262.9,273.1
							c-1.2,0-2.4,0-3.6-0.1c-1.2-0.1-2.4-0.1-3.6-0.3s-2.4-0.3-3.6-0.4c-1.2-0.2-2.4-0.4-3.5-0.6c-1.2-0.2-2.3-0.5-3.5-0.8
							c-1.2-0.3-2.3-0.6-3.5-1c-1.1-0.3-2.3-0.7-3.4-1.1c-1.1-0.4-2.2-0.8-3.4-1.3c-1.1-0.5-2.2-0.9-3.3-1.5
							c-1.1-0.5-2.2-1.1-3.2-1.6c-1.1-0.6-2.1-1.2-3.1-1.8s-2-1.3-3-1.9c-1-0.7-2-1.4-2.9-2.1c-1-0.7-1.9-1.5-2.8-2.2
							c-0.9-0.8-1.8-1.5-2.7-2.3c-0.9-0.8-1.8-1.6-2.6-2.5s-1.7-1.7-2.5-2.6c-0.8-0.9-1.6-1.8-2.3-2.7c-0.8-0.9-1.5-1.9-2.2-2.8
							s-1.4-1.9-2.1-2.9c-0.7-1-1.3-2-1.9-3c-0.6-1-1.2-2.1-1.8-3.1c-0.6-1.1-1.1-2.1-1.6-3.2c-0.5-1.1-1-2.2-1.5-3.3
							s-0.9-2.2-1.3-3.4c-0.4-1.1-0.8-2.3-1.1-3.4c-0.3-1.1-0.7-2.3-1-3.5s-0.6-2.3-0.8-3.5c-0.2-1.2-0.4-2.4-0.6-3.5
							c-0.2-1.2-0.3-2.4-0.4-3.6c-0.1-1.2-0.2-2.4-0.3-3.6c-0.1-1.2-0.1-2.4-0.1-3.6c0-1.2,0-2.4,0.1-3.6c0.1-1.2,0.1-2.4,0.3-3.6
							c0.1-1.2,0.3-2.4,0.4-3.6c0.2-1.2,0.4-2.4,0.6-3.5c0.2-1.2,0.5-2.3,0.8-3.5s0.6-2.3,1-3.5c0.3-1.1,0.7-2.3,1.1-3.4
							c0.4-1.1,0.8-2.2,1.3-3.4s0.9-2.2,1.5-3.3s1.1-2.2,1.6-3.2c0.6-1.1,1.2-2.1,1.8-3.1c0.6-1,1.3-2,1.9-3c0.7-1,1.4-2,2.1-2.9
							s1.5-1.9,2.2-2.8c0.8-0.9,1.5-1.8,2.3-2.7c0.8-0.9,1.6-1.8,2.5-2.6s1.7-1.7,2.6-2.5c0.9-0.8,1.8-1.6,2.7-2.3
							c0.9-0.8,1.9-1.5,2.8-2.2s1.9-1.4,2.9-2.1c1-0.7,2-1.3,3-1.9s2.1-1.2,3.1-1.8c1.1-0.6,2.1-1.1,3.2-1.6c1.1-0.5,2.2-1,3.3-1.5
							c1.1-0.5,2.2-0.9,3.4-1.3c1.1-0.4,2.3-0.8,3.4-1.1c1.1-0.3,2.3-0.7,3.5-1c1.2-0.3,2.3-0.6,3.5-0.8c1.2-0.2,2.4-0.4,3.5-0.6
							c1.2-0.2,2.4-0.3,3.6-0.4c1.2-0.1,2.4-0.2,3.6-0.3c1.2-0.1,2.4-0.1,3.6-0.1c1.2,0,2.4,0,3.6,0.1c1.2,0.1,2.4,0.1,3.6,0.3
							c1.2,0.1,2.4,0.3,3.6,0.4c1.2,0.2,2.4,0.4,3.5,0.6c1.2,0.2,2.3,0.5,3.5,0.8c1.2,0.3,2.3,0.6,3.5,1c1.1,0.3,2.3,0.7,3.4,1.1
							c1.1,0.4,2.2,0.8,3.4,1.3c1.1,0.5,2.2,0.9,3.3,1.5c1.1,0.5,2.2,1.1,3.2,1.6c1.1,0.6,2.1,1.2,3.1,1.8c1,0.6,2,1.3,3,1.9
							s2,1.4,2.9,2.1s1.9,1.5,2.8,2.2c0.9,0.8,1.8,1.5,2.7,2.3s1.8,1.6,2.6,2.5s1.7,1.7,2.5,2.6c0.8,0.9,1.6,1.8,2.3,2.7
							c0.8,0.9,1.5,1.9,2.2,2.8s1.4,1.9,2.1,2.9c0.7,1,1.3,2,1.9,3c0.6,1,1.2,2.1,1.8,3.1c0.6,1.1,1.1,2.1,1.6,3.2s1,2.2,1.5,3.3
							s0.9,2.2,1.3,3.4c0.4,1.1,0.8,2.3,1.1,3.4c0.3,1.1,0.7,2.3,1,3.5s0.6,2.3,0.8,3.5c0.2,1.2,0.4,2.4,0.6,3.5
							c0.2,1.2,0.3,2.4,0.4,3.6c0.1,1.2,0.2,2.4,0.3,3.6c0.1,1.2,0.1,2.4,0.1,3.6c0,1.2,0,2.4-0.1,3.6c-0.1,1.2-0.1,2.4-0.3,3.6
							c-0.1,1.2-0.3,2.4-0.4,3.6c-0.2,1.2-0.4,2.4-0.6,3.5c-0.2,1.2-0.5,2.3-0.8,3.5s-0.6,2.3-1,3.5c-0.3,1.1-0.7,2.3-1.1,3.4
							c-0.4,1.1-0.8,2.2-1.3,3.4c-0.5,1.1-0.9,2.2-1.5,3.3s-1.1,2.2-1.6,3.2c-0.6,1.1-1.2,2.1-1.8,3.1c-0.6,1-1.3,2-1.9,3
							c-0.7,1-1.4,2-2.1,2.9s-1.5,1.9-2.2,2.8c-0.8,0.9-1.5,1.8-2.3,2.7c-0.8,0.9-1.6,1.8-2.5,2.6s-1.7,1.7-2.6,2.5
							s-1.8,1.6-2.7,2.3c-0.9,0.8-1.9,1.5-2.8,2.2c-1,0.7-1.9,1.4-2.9,2.1s-2,1.3-3,1.9s-2.1,1.2-3.1,1.8c-1.1,0.6-2.1,1.1-3.2,1.6
							c-1.1,0.5-2.2,1-3.3,1.5s-2.2,0.9-3.4,1.3c-1.1,0.4-2.3,0.8-3.4,1.1s-2.3,0.7-3.5,1c-1.2,0.3-2.3,0.6-3.5,0.8
							s-2.4,0.4-3.5,0.6c-1.2,0.2-2.4,0.3-3.6,0.4c-1.2,0.1-2.4,0.2-3.6,0.3C265.3,273.1,264.1,273.1,262.9,273.1z"/>
					</g>
				</g>
			</g>
		</g>
	</g>
</g>
</svg>
